<?xml version="1.0" encoding="UTF-8" standalone="no"?>
<svg width="14px" height="14px" viewBox="0 0 14 14" version="1.1" xmlns="http://www.w3.org/2000/svg" xmlns:xlink="http://www.w3.org/1999/xlink" xmlns:sketch="http://www.bohemiancoding.com/sketch/ns">
    <title>Imported Layers</title>
    <description>Created with Sketch (http://www.bohemiancoding.com/sketch)</description>
    <defs></defs>
    <g id="Page-1" stroke="none" stroke-width="1" fill="none" fill-rule="evenodd" sketch:type="MSPage">
        <g id="Imported-Layers" sketch:type="MSLayerGroup" transform="translate(1.000000, 1.000000)">
            <path d="M11.2755882,6.19258824 C11.2755882,9.10611765 8.91379412,11.4679118 5.99988235,11.4679118 C3.08673529,11.4679118 0.724941176,9.10611765 0.724941176,6.19258824 C0.724941176,3.27944118 3.08673529,0.917264706 5.99988235,0.917264706 C8.91379412,0.917264706 11.2755882,3.27944118 11.2755882,6.19258824" id="Fill-1" fill="#C6E2ED" sketch:type="MSShapeGroup"></path>
            <path d="M1.521,6.65676471 C1.28164706,5.84961765 1.55885294,5.09408824 2.15761765,5.03444118 C2.69444118,4.98052941 3.15517647,4.18179412 3.53370588,3.65758824 C4.31179412,2.58088235 5.50855882,2.76058824 5.44852941,2.22147059 C5.27647059,1.43152941 4.36264706,2.01844118 3.77305882,2.04214706 C3.36661765,2.05858824 2.97661765,2.1125 2.58814706,2.17061765 C1.48811765,3.10470588 0.776558824,4.48155882 0.728764706,6.02664706 C1.03961765,6.35432353 1.45026471,7.09494118 1.924,7.52317647 C1.98670588,7.49526471 2.05514706,7.47155882 2.12741176,7.44938235 C1.89494118,7.17944118 1.56994118,6.82194118 1.521,6.65676471" id="Fill-2" fill="#68ACD3" sketch:type="MSShapeGroup"></path>
            <path d="M5.14952941,9.58214706 C5.42826471,8.85644118 5.58579412,8.53641176 5.20955882,7.78738235 C4.38061765,7.55338235 4.12902941,7.47920588 3.29435294,7.30791176 C2.85923529,7.21920588 2.84317647,7.24214706 2.35338235,7.38514706 C2.27538235,7.40732353 2.19929412,7.42797059 2.12741176,7.44938235 C2.06279412,7.46697059 2.01194118,7.49258824 1.924,7.52317647 C1.73014706,7.60958824 1.59020588,7.74188235 1.55732353,8.02444118 C1.49844118,8.53717647 1.98555882,8.93941176 2.39697059,9.05679412 C2.91773529,9.20591176 2.96132353,9.03194118 3.23470588,9.40129412 C3.42588235,9.65938235 3.46258824,10.1384706 3.56047059,10.4535294 C3.61514706,10.6297941 3.68855882,10.8049118 3.77688235,10.9765882 C4.14929412,11.1497941 4.54426471,11.2817059 4.95758824,11.3646765 C5.06005882,10.7567353 5.01341176,9.93658824 5.14952941,9.58214706" id="Fill-3" fill="#68ACD3" sketch:type="MSShapeGroup"></path>
            <path d="M11.2694706,5.95667647 C11.2056176,4.49991176 10.5510294,3.19685294 9.53932353,2.28073529 C9.4445,2.30711765 9.32367647,2.31170588 9.15888235,2.28188235 C8.06191176,2.08191176 7.80305882,2.72273529 7.48341176,3.17926471 C7.23908824,3.52797059 6.38185294,3.62394118 6.10694118,4.01661765 C5.89282353,4.32326471 6.11420588,4.92585294 5.92761765,5.27341176 C5.84158824,5.43361765 5.88097059,5.89817647 5.98611765,6.04997059 C6.31647059,6.53058824 6.86476471,6.26370588 7.27732353,6.43652941 C7.78088235,6.64682353 7.83861765,7.23029412 8.25614706,7.65814706 C8.67405882,8.086 7.72276471,8.74479412 8.49932353,10.3005882 C8.58305882,10.4676765 8.67941176,10.5900294 8.78341176,10.6737647 C9.30838235,10.3464706 9.77141176,9.93008824 10.1518529,9.44488235 C10.2696176,8.65914706 10.0042647,8.40755882 10.3361471,7.68873529 C10.5410882,7.24520588 10.8909412,6.47744118 11.2694706,5.95667647" id="Fill-4" fill="#68ACD3" sketch:type="MSShapeGroup"></path>
            <path d="M4.3095,5.01455882 C5.20688235,4.63335294 6.18035294,4.32823529 7.49182353,4.21811765 C7.15802941,3.41632353 6.78867647,2.85005882 6.35508824,2.33120588 C5.38773529,2.40882353 4.50488235,2.66920588 3.74170588,2.98502941 C3.85411765,3.57920588 4.06594118,4.29802941 4.3095,5.01455882 L4.3095,5.01455882 Z M8.49435294,7.22532353 C7.25247059,7.21002941 6.1685,7.5075 5.4275,7.87188235 C5.74141176,8.54788235 6.36235294,9.44373529 6.59444118,9.81270588 C6.99820588,9.66244118 7.43255882,9.54964706 7.76864706,9.49688235 C8.1055,9.4445 8.55438235,9.39517647 8.85835294,9.40052941 C8.80329412,8.61326471 8.71114706,8.08217647 8.49435294,7.22532353 L8.49435294,7.22532353 Z M5.20267647,7.42070588 C6.19526471,6.96455882 7.28497059,6.75923529 8.38194118,6.78905882 C8.08294118,5.75173529 7.91088235,5.27035294 7.65623529,4.63908824 C6.43729412,4.69147059 5.39729412,4.99238235 4.44982353,5.44126471 C4.44982353,5.44126471 4.79891176,6.56347059 5.20267647,7.42070588 L5.20267647,7.42070588 Z M9.01779412,2.41379412 C8.40947059,2.30329412 7.52202941,2.23332353 6.86361765,2.27308824 C7.3125,2.89479412 7.64170588,3.43620588 7.95064706,4.20779412 C8.78379412,4.22844118 9.91555882,4.47697059 10.3793529,4.65897059 C10.1025294,3.92064706 9.57641176,2.9835 9.01779412,2.41379412 L9.01779412,2.41379412 Z M10.9104412,7.31708824 C10.8729706,6.63152941 10.7682059,5.71579412 10.5139412,5.07841176 C9.84061765,4.80808824 8.92067647,4.63908824 8.11276471,4.63144118 C8.36205882,5.21261765 8.65188235,6.18417647 8.79373529,6.80932353 C9.37682353,6.87929412 10.2898824,7.04447059 10.9104412,7.31708824 L10.9104412,7.31708824 Z M10.3545,2.52429412 C9.48655882,1.46135294 7.52202941,0.557088235 5.33497059,0.693205882 C5.82361765,1.01552941 6.23044118,1.50188235 6.58679412,1.90258824 C7.13279412,1.8525 8.27985294,1.94273529 8.71114706,2.06202941 C8.63773529,1.97523529 8.5475,1.88882353 8.52417647,1.83797059 C8.463,1.70605882 8.61058824,1.67814706 8.72873529,1.75347059 C8.87823529,1.84905882 9.05067647,1.96338235 9.18755882,2.10294118 C9.44105882,2.15952941 10.0650588,2.37364706 10.3545,2.52429412 L10.3545,2.52429412 Z M11.4017647,7.64094118 C11.3769118,7.72620588 11.2270294,7.81185294 11.1574412,7.79044118 C11.1673824,7.94185294 11.1322059,8.69432353 11.0924412,8.98452941 C11.1968235,8.76964706 11.3967941,8.23741176 11.4564412,8.01220588 L11.5413235,7.68147059 C11.6250588,7.39967647 11.8980588,6.4285 11.6510588,5.15029412 C11.3769118,3.73023529 10.8630294,3.22323529 10.6833235,2.99764706 C10.2271765,2.7495 9.53626471,2.52429412 9.53626471,2.52429412 C10.1621765,3.37158824 10.3793529,3.77038235 10.7532941,4.77941176 C10.9704706,4.89220588 11.3642941,5.11052941 11.4136176,5.17017647 C11.453,5.21758824 11.4533824,5.30247059 11.3298824,5.30055882 C11.2270294,5.29979412 11.0274412,5.20114706 10.8729706,5.16023529 C11.0373824,5.71005882 11.1647059,6.73667647 11.1551471,7.42452941 C11.1551471,7.42452941 11.4266176,7.55605882 11.4017647,7.64094118 L11.4017647,7.64094118 Z M10.6037941,9.73088235 C10.6936471,9.64102941 10.8282353,9.45061765 10.8806176,9.33973529 C10.933,8.88894118 10.9349118,7.96479412 10.9154118,7.69523529 C10.3717059,7.47461765 9.53167647,7.30026471 8.918,7.25514706 C9.11758824,7.98735294 9.21738235,9.06444118 9.23267647,9.41544118 C9.52670588,9.44526471 10.2696176,9.59591176 10.6037941,9.73088235 L10.6037941,9.73088235 Z M9.20744118,10.9689412 C9.68347059,10.6726176 10.1300588,10.3315588 10.4542941,9.92129412 C10.1751765,9.85132353 9.55155882,9.76644118 9.24223529,9.78632353 C9.24223529,9.78632353 9.23267647,10.5277059 9.20744118,10.9689412 L9.20744118,10.9689412 Z M7.90897059,11.5814706 C8.14526471,11.5053824 8.74785294,11.232 8.87326471,11.1494118 C8.90308824,10.6634412 8.89811765,10.1117059 8.87823529,9.78135294 C8.24505882,9.78135294 7.35226471,9.96641176 6.84144118,10.1809118 C7.13776471,10.6584706 7.54688235,11.1845882 7.90897059,11.5814706 L7.90897059,11.5814706 Z M5.06082353,11.1658529 C5.23785294,11.3447941 5.93985294,11.8093529 5.93985294,11.8093529 C6.40632353,11.8292353 6.99591176,11.7745588 7.41688235,11.7011471 C7.18479412,11.4361765 6.60514706,10.6156471 6.42926471,10.3395882 C5.98076471,10.5277059 5.41220588,10.8741176 5.06082353,11.1658529 L5.06082353,11.1658529 Z M3.14332353,9.21279412 C3.58952941,9.78517647 4.28808824,10.5116471 4.77444118,10.9131176 C5.23479412,10.543 5.75670588,10.1973529 6.19029412,9.98667647 C5.81597059,9.40626471 5.26270588,8.56279412 5.031,8.04470588 C4.20052941,8.41291176 3.72908824,8.72147059 3.14332353,9.21279412 L3.14332353,9.21279412 Z M1.9565,6.91714706 C2.24058824,7.7285 2.5155,8.34752941 2.87452941,8.85835294 C3.29435294,8.49320588 4.15579412,7.91661765 4.81382353,7.60117647 C4.59702941,7.13508824 4.28426471,6.26370588 4.06594118,5.61102941 C3.21826471,6.02741176 2.58470588,6.43308824 1.9565,6.91714706 L1.9565,6.91714706 Z M1.27552941,4.48117647 C1.34358824,4.94802941 1.56764706,5.95476471 1.76914706,6.46558824 C2.24823529,6.10502941 3.33258824,5.43591176 3.94626471,5.16520588 C3.73176471,4.38329412 3.58723529,3.88967647 3.46717647,3.1005 C2.59961765,3.48629412 1.68235294,4.08582353 1.27552941,4.48117647 L1.27552941,4.48117647 Z M1.17038235,2.81794118 C1.14017647,3.05347059 1.17191176,3.48820588 1.23079412,4.00744118 C1.7095,3.57920588 2.63479412,3.02020588 3.40752941,2.67952941 C3.31805882,2.09032353 3.22323529,1.1505 3.23317647,0.900058824 C2.51779412,1.29273529 1.73282353,2.08152941 1.15776471,2.89020588 L1.17038235,2.81794118 Z M3.49738235,0.438176471 C4.52552941,0.0126176471 5.52614706,-0.221 6.682,-0.0630882353 C6.81008824,-0.0455 6.79938235,0.0630882353 6.66288235,0.0642352941 L6.5,0.0688235294 C5.56935294,0.0833529412 4.20052941,0.378911765 3.49241176,0.78 C3.4775,1.25220588 3.56697059,2.00276471 3.66179412,2.59426471 C4.30529412,2.32355882 5.30017647,2.04558824 6.05570588,1.96261765 C5.62670588,1.50647059 5.04323529,1.07555882 4.97364706,1.02547059 C4.90367647,0.975382353 4.86888235,0.890117647 4.86888235,0.78 C4.87882353,0.574294118 5.05585294,0.548676471 5.15029412,0.573147059 C5.46497059,0.511588235 5.77735294,0.443529412 6.30997059,0.459205882 C8.56126471,0.360941176 10.6179412,1.63417647 11.4025294,3.08597059 C13.3911471,6.23082353 11.4032941,10.5693824 8.79985294,11.7248529 C7.68644118,12.2192353 6.73132353,12.4322059 4.97097059,12.1867353 C3.20717647,11.9401176 1.76494118,11.0782941 0.645411765,9.26555882 C-0.734117647,7.03261765 0.0420588235,4.43070588 0.236294118,3.88508824 C1.06638235,1.92667647 2.42794118,0.888970588 3.49738235,0.438176471 L3.49738235,0.438176471 Z M0.841941176,4.30835294 C0.819382353,3.96997059 0.792235294,3.50617647 0.792235294,3.50617647 C0.543705882,4.04720588 0.394970588,4.37297059 0.325764706,5.00423529 C0.500117647,4.69605882 0.841941176,4.30835294 0.841941176,4.30835294 L0.841941176,4.30835294 Z M4.47467647,11.1643235 C4.10073529,10.8852059 3.17429412,10.0069412 2.79041176,9.47738235 C2.64970588,9.56035294 2.49217647,9.78632353 2.288,9.82532353 C2.20770588,9.84023529 2.02723529,9.86241176 1.97408824,9.84023529 C1.92055882,9.81805882 1.98594118,9.70526471 2.04367647,9.62955882 C2.14347059,9.49955882 2.28914706,9.33017647 2.5025,9.165 C2.04635294,8.49588235 1.82917647,8.00685294 1.51908824,7.20047059 C1.33938235,7.3125 1.20938235,7.41229412 1.05261765,7.53694118 C0.999852941,7.57823529 0.854941176,7.60461765 0.784588235,7.54152941 C0.656882353,7.42682353 0.654970588,7.22532353 0.834676471,7.09723529 C0.908088235,7.04485294 1.27323529,6.79288235 1.35811765,6.72176471 C1.13367647,6.07482353 0.946323529,5.22447059 0.896235294,4.78361765 C0.746735294,4.91361765 0.536441176,5.06158824 0.477558824,5.10173529 C0.392294118,5.12582353 0.335323529,5.09867647 0.311235294,5.09447059 C0.225588235,6.00944118 0.324235294,7.01694118 0.596088235,7.92617647 C1.06370588,9.49076471 2.37517647,10.9823235 4.14508824,11.5371176 C4.18638235,11.4755588 4.38979412,11.2400294 4.47467647,11.1643235 L4.47467647,11.1643235 Z M5.39729412,11.791 C5.22255882,11.6908235 5.00347059,11.5355882 4.79891176,11.3998529 C4.71441176,11.4751765 4.64558824,11.5852941 4.57791176,11.6736176 C4.81229412,11.7539118 5.12811765,11.7607941 5.39729412,11.791 L5.39729412,11.791 Z" id="Fill-5" fill="#4188BC" sketch:type="MSShapeGroup"></path>
        </g>
    </g>
</svg>