<?xml version="1.0" encoding="UTF-8" standalone="no"?>
<svg width="33px" height="34px" viewBox="0 0 33 34" version="1.1" xmlns="http://www.w3.org/2000/svg" xmlns:xlink="http://www.w3.org/1999/xlink" xmlns:sketch="http://www.bohemiancoding.com/sketch/ns">
    <title>esri-logo-white</title>
    <description>Created with Sketch (http://www.bohemiancoding.com/sketch)</description>
    <defs></defs>
    <g id="Page-1" stroke="none" stroke-width="1" fill="none" fill-rule="evenodd" sketch:type="MSPage">
        <g id="esri-logo" sketch:type="MSLayerGroup" transform="translate(1.000000, 1.000000)" fill="#FFFFFF">
            <g id="Page-1" sketch:type="MSShapeGroup">
                <g id="esri-logo">
                    <g id="Group">
                        <circle id="Oval" opacity="0.3" cx="15.797" cy="15.797" r="13.797"></circle>
                        <g id="Shape" transform="translate(2.000000, 5.000000)">
                            <path d="M1.978,12.41 C1.352,10.299 2.077,8.323 3.643,8.167 C5.047,8.026 6.252,5.937 7.243,4.566 C9.278,1.749 12.408,2.219 12.251,0.81 C11.8,-1.256 9.411,0.279 7.869,0.34 C6.806,0.383 5.786,0.525 4.77,0.676 C1.893,3.119 0.032,6.72 -0.093,10.761 C0.72,11.618 1.794,13.555 3.032,14.675 C3.197,14.602 3.375,14.54 3.564,14.483 C2.956,13.777 2.106,12.842 1.978,12.41 L1.978,12.41 L1.978,12.41 Z"></path>
                            <path d="M11.468,20.062 C12.197,18.164 12.609,17.327 11.624,15.368 C9.456,14.756 8.799,14.562 6.616,14.114 C5.477,13.882 5.436,13.942 4.155,14.315 C3.951,14.374 3.753,14.427 3.564,14.484 C3.395,14.53 3.262,14.596 3.032,14.676 C2.526,14.903 2.159,15.248 2.074,15.988 C1.92,17.329 3.194,18.381 4.269,18.688 C5.631,19.078 5.746,18.623 6.46,19.588 C6.96,20.263 7.056,21.516 7.312,22.34 C7.455,22.801 7.647,23.259 7.878,23.708 C8.852,24.161 9.885,24.506 10.966,24.723 C11.234,23.133 11.112,20.988 11.468,20.062 L11.468,20.062 L11.468,20.062 Z"></path>
                            <path d="M27.474,10.579 C27.307,6.769 25.595,3.361 22.949,0.965 C22.701,1.034 22.385,1.046 21.954,0.968 C19.085,0.446 18.408,2.121 17.572,3.315 C16.933,4.227 14.692,4.478 13.972,5.505 C13.412,6.306 13.991,7.883 13.503,8.792 C13.278,9.21 13.381,10.426 13.656,10.823 C14.52,12.08 15.954,11.382 17.033,11.834 C18.349,12.384 18.5,13.91 19.593,15.029 C20.686,16.148 18.197,17.871 20.229,21.939 C20.447,22.377 20.7,22.697 20.971,22.916 C22.345,22.061 23.555,20.971 24.551,19.702 C24.859,17.647 24.165,16.989 25.033,15.109 C25.569,13.949 26.484,11.941 27.474,10.579 L27.474,10.579 L27.474,10.579 Z"></path>
                        </g>
                        <path d="M11.271,13.115 C13.619,12.118 16.164,11.321 19.595,11.032 C18.721,8.935 17.756,7.454 16.621,6.097 C14.091,6.3 11.782,6.981 9.787,7.807 C10.08,9.361 10.634,11.241 11.271,13.115 L11.271,13.115 L11.271,13.115 Z M22.216,18.896 C18.968,18.857 16.133,19.634 14.195,20.587 C15.016,22.356 16.64,24.698 17.247,25.663 C18.303,25.269 19.438,24.975 20.318,24.837 C21.199,24.7 22.372,24.571 23.168,24.585 C23.024,22.527 22.783,21.138 22.216,18.896 L22.216,18.896 L22.216,18.896 Z M13.607,19.408 C16.203,18.215 19.052,17.678 21.922,17.756 C21.139,15.043 20.69,13.784 20.024,12.133 C16.836,12.271 14.116,13.057 11.638,14.231 C11.638,14.231 12.551,17.166 13.607,19.408 L13.607,19.408 L13.607,19.408 Z M23.585,6.313 C21.994,6.024 19.673,5.841 17.951,5.945 C19.125,7.571 19.986,8.987 20.794,11.005 C22.972,11.058 25.932,11.709 27.146,12.185 C26.422,10.254 25.046,7.803 23.585,6.313 L23.585,6.313 L23.585,6.313 Z M28.535,19.137 C28.437,17.344 28.163,14.949 27.498,13.283 C25.737,12.575 23.331,12.134 21.218,12.114 C21.87,13.634 22.628,16.175 22.998,17.809 C24.524,17.992 26.912,18.424 28.535,19.137 L28.535,19.137 L28.535,19.137 Z M27.081,6.602 C24.811,3.823 19.673,1.457 13.953,1.813 C15.231,2.656 16.295,3.928 17.227,4.977 C18.655,4.846 21.655,5.082 22.783,5.394 C22.591,5.167 22.355,4.941 22.294,4.808 C22.134,4.463 22.519,4.39 22.828,4.587 C23.219,4.837 23.671,5.136 24.028,5.501 C24.692,5.648 26.324,6.208 27.081,6.602 L27.081,6.602 L27.081,6.602 Z M29.82,19.984 C29.755,20.207 29.363,20.43 29.181,20.375 C29.207,20.771 29.116,22.739 29.012,23.498 C29.285,22.936 29.807,21.544 29.964,20.955 L30.186,20.09 C30.406,19.354 31.119,16.813 30.473,13.47 C29.756,9.757 28.412,8.43 27.943,7.84 C26.749,7.191 24.943,6.602 24.943,6.602 C26.58,8.819 27.147,9.862 28.126,12.5 C28.694,12.795 29.724,13.366 29.853,13.522 C29.957,13.646 29.957,13.868 29.634,13.863 C29.365,13.861 28.843,13.603 28.439,13.496 C28.869,14.934 29.202,17.619 29.177,19.418 C29.175,19.418 29.885,19.762 29.82,19.984 L29.82,19.984 L29.82,19.984 Z M27.733,25.45 C27.968,25.215 28.32,24.717 28.457,24.427 C28.594,23.248 28.599,20.831 28.548,20.126 C27.126,19.549 24.928,19.093 23.324,18.975 C23.846,20.89 24.107,23.707 24.146,24.625 C24.916,24.703 26.859,25.097 27.733,25.45 L27.733,25.45 L27.733,25.45 Z M24.081,28.688 C25.326,27.913 26.494,27.02 27.342,25.948 C26.612,25.764 24.981,25.543 24.173,25.594 C24.172,25.595 24.146,27.534 24.081,28.688 L24.081,28.688 L24.081,28.688 Z M20.685,30.29 C21.303,30.091 22.879,29.376 23.207,29.16 C23.285,27.889 23.272,26.446 23.22,25.582 C21.563,25.582 19.229,26.066 17.892,26.627 C18.668,27.876 19.738,29.252 20.685,30.29 L20.685,30.29 L20.685,30.29 Z M13.236,29.203 C13.699,29.671 15.534,30.886 15.534,30.886 C16.754,30.939 18.296,30.795 19.398,30.603 C18.791,29.911 17.274,27.764 16.815,27.042 C15.642,27.534 14.155,28.439 13.236,29.203 L13.236,29.203 L13.236,29.203 Z M8.221,24.095 C9.388,25.592 11.215,27.492 12.488,28.542 C13.692,27.574 15.056,26.67 16.191,26.119 C15.212,24.6 13.765,22.395 13.158,21.04 C10.986,22.003 9.753,22.81 8.221,24.095 L8.221,24.095 L8.221,24.095 Z M5.117,18.091 C5.86,20.213 6.579,21.832 7.518,23.168 C8.616,22.213 10.869,20.705 12.59,19.88 C12.023,18.661 11.204,16.382 10.633,14.675 C8.417,15.764 6.76,16.825 5.117,18.091 L5.117,18.091 L5.117,18.091 Z M3.336,11.72 C3.513,12.941 4.099,15.574 4.627,16.91 C5.879,15.967 8.716,14.217 10.32,13.509 C9.759,11.464 9.381,10.173 9.068,8.109 C6.799,9.118 4.4,10.686 3.336,11.72 L3.336,11.72 L3.336,11.72 Z M3.062,7.37 C2.983,7.986 3.065,9.122 3.219,10.481 C4.471,9.361 6.891,7.899 8.912,7.008 C8.678,5.467 8.43,3.009 8.455,2.355 C6.584,3.382 4.532,5.445 3.028,7.56 L3.062,7.37 L3.062,7.37 Z M9.147,1.146 C11.835,0.033 14.453,-0.578 17.475,-0.165 C17.811,-0.119 17.783,0.166 17.425,0.168 L17,0.18 C14.566,0.218 10.986,0.992 9.134,2.04 C9.095,3.275 9.329,5.238 9.577,6.785 C11.26,6.077 13.862,5.35 15.838,5.134 C14.716,3.941 13.191,2.814 13.008,2.683 C12.825,2.552 12.734,2.329 12.734,2.04 C12.76,1.502 13.223,1.436 13.47,1.499 C14.293,1.339 15.111,1.16 16.503,1.202 C22.391,0.945 27.77,4.275 29.822,8.072 C35.023,16.297 29.823,27.644 23.014,30.666 C20.102,31.959 17.604,32.516 13,31.874 C8.387,31.229 4.616,28.975 1.687,24.234 C-1.921,18.393 0.11,11.588 0.617,10.161 C2.789,5.039 6.35,2.325 9.147,1.146 L9.147,1.146 L9.147,1.146 Z M2.202,11.268 C2.143,10.384 2.073,9.171 2.073,9.171 C1.423,10.586 1.034,11.437 0.853,13.089 C1.308,12.282 2.202,11.268 2.202,11.268 L2.202,11.268 L2.202,11.268 Z M11.703,29.199 C10.724,28.469 8.302,26.172 7.298,24.787 C6.929,25.004 6.518,25.595 5.984,25.697 C5.774,25.736 5.302,25.794 5.162,25.736 C5.023,25.677 5.194,25.382 5.345,25.185 C5.606,24.844 5.987,24.402 6.545,23.969 C5.352,22.219 4.784,20.941 3.973,18.831 C3.504,19.124 3.163,19.385 2.753,19.711 C2.615,19.819 2.236,19.888 2.052,19.723 C1.718,19.423 1.713,18.896 2.182,18.562 C2.374,18.424 3.329,17.765 3.551,17.58 C2.964,15.888 2.474,13.664 2.343,12.511 C1.952,12.851 1.402,13.238 1.247,13.344 C1.025,13.407 0.876,13.336 0.812,13.325 C0.588,15.718 0.846,18.352 1.558,20.731 C2.781,24.823 6.211,28.723 10.84,30.174 C10.949,30.013 11.481,29.396 11.703,29.199 L11.703,29.199 L11.703,29.199 Z M14.116,30.838 C13.659,30.576 13.086,30.17 12.551,29.816 C12.329,30.012 12.15,30.3 11.973,30.532 C12.586,30.741 13.412,30.759 14.116,30.838 L14.116,30.838 L14.116,30.838 Z" id="Shape"></path>
                    </g>
                </g>
            </g>
        </g>
    </g>
</svg>