<?xml version="1.0" encoding="UTF-8" standalone="no"?>
<svg width="12px" height="12px" viewBox="0 0 12 12" version="1.1" xmlns="http://www.w3.org/2000/svg" xmlns:xlink="http://www.w3.org/1999/xlink" xmlns:sketch="http://www.bohemiancoding.com/sketch/ns">
    <title>Untitled</title>
    <description>Created with Sketch (http://www.bohemiancoding.com/sketch)</description>
    <defs></defs>
    <g id="Page-1" stroke="none" stroke-width="1" fill="none" fill-rule="evenodd" sketch:type="MSPage">
        <g id="Imported-Layers" sketch:type="MSLayerGroup">
            <path d="M11.05875,6.0735 C11.05875,8.931 8.742375,11.247375 5.8845,11.247375 C3.027375,11.247375 0.711,8.931 0.711,6.0735 C0.711,3.216375 3.027375,0.899625 5.8845,0.899625 C8.742375,0.899625 11.05875,3.216375 11.05875,6.0735" id="Fill-1" fill="#A6D4E6" sketch:type="MSShapeGroup"></path>
            <path d="M1.49175,6.52875 C1.257,5.737125 1.528875,4.996125 2.116125,4.937625 C2.642625,4.88475 3.0945,4.101375 3.46575,3.58725 C4.228875,2.53125 5.402625,2.7075 5.34375,2.17875 C5.175,1.404 4.27875,1.979625 3.7005,2.002875 C3.301875,2.019 2.919375,2.071875 2.538375,2.128875 C1.4595,3.045 0.761625,4.395375 0.71475,5.91075 C1.019625,6.232125 1.422375,6.9585 1.887,7.3785 C1.9485,7.351125 2.015625,7.327875 2.0865,7.306125 C1.8585,7.041375 1.53975,6.69075 1.49175,6.52875" id="Fill-2" fill="#5996B9" sketch:type="MSShapeGroup"></path>
            <path d="M5.0505,9.397875 C5.323875,8.686125 5.478375,8.37225 5.109375,7.637625 C4.296375,7.408125 4.049625,7.335375 3.231,7.167375 C2.80425,7.080375 2.7885,7.102875 2.308125,7.243125 C2.231625,7.264875 2.157,7.285125 2.0865,7.306125 C2.023125,7.323375 1.97325,7.3485 1.887,7.3785 C1.696875,7.46325 1.559625,7.593 1.527375,7.870125 C1.469625,8.373 1.947375,8.7675 2.350875,8.882625 C2.861625,9.028875 2.904375,8.85825 3.1725,9.2205 C3.36,9.473625 3.396,9.9435 3.492,10.2525 C3.545625,10.425375 3.617625,10.597125 3.70425,10.7655 C4.0695,10.935375 4.456875,11.06475 4.86225,11.146125 C4.96275,10.549875 4.917,9.7455 5.0505,9.397875" id="Fill-3" fill="#5996B9" sketch:type="MSShapeGroup"></path>
            <path d="M11.05275,5.842125 C10.990125,4.413375 10.348125,3.135375 9.355875,2.236875 C9.262875,2.26275 9.144375,2.26725 8.98275,2.238 C7.906875,2.041875 7.653,2.670375 7.3395,3.118125 C7.099875,3.460125 6.259125,3.55425 5.9895,3.939375 C5.7795,4.240125 5.996625,4.831125 5.813625,5.172 C5.72925,5.329125 5.767875,5.78475 5.871,5.933625 C6.195,6.405 6.73275,6.14325 7.137375,6.31275 C7.63125,6.519 7.687875,7.09125 8.097375,7.510875 C8.50725,7.9305 7.57425,8.576625 8.335875,10.1025 C8.418,10.266375 8.5125,10.386375 8.6145,10.4685 C9.129375,10.1475 9.5835,9.739125 9.956625,9.26325 C10.072125,8.492625 9.811875,8.245875 10.137375,7.540875 C10.338375,7.105875 10.6815,6.352875 11.05275,5.842125" id="Fill-4" fill="#5996B9" sketch:type="MSShapeGroup"></path>
            <path d="M4.226625,4.918125 C5.10675,4.54425 6.0615,4.245 7.34775,4.137 C7.020375,3.350625 6.658125,2.79525 6.232875,2.286375 C5.284125,2.3625 4.41825,2.617875 3.66975,2.927625 C3.78,3.510375 3.98775,4.215375 4.226625,4.918125 L4.226625,4.918125 Z M8.331,7.086375 C7.113,7.071375 6.049875,7.363125 5.323125,7.7205 C5.631,8.3835 6.24,9.262125 6.467625,9.624 C6.863625,9.476625 7.289625,9.366 7.61925,9.31425 C7.949625,9.262875 8.389875,9.2145 8.688,9.21975 C8.634,8.447625 8.543625,7.92675 8.331,7.086375 L8.331,7.086375 Z M5.102625,7.278 C6.076125,6.830625 7.144875,6.62925 8.22075,6.6585 C7.9275,5.641125 7.75875,5.169 7.509,4.549875 C6.3135,4.60125 5.2935,4.896375 4.36425,5.336625 C4.36425,5.336625 4.706625,6.43725 5.102625,7.278 L5.102625,7.278 Z M8.844375,2.367375 C8.24775,2.259 7.377375,2.190375 6.731625,2.229375 C7.171875,2.839125 7.49475,3.370125 7.79775,4.126875 C8.614875,4.147125 9.724875,4.390875 10.17975,4.569375 C9.90825,3.84525 9.39225,2.926125 8.844375,2.367375 L8.844375,2.367375 Z M10.700625,7.176375 C10.663875,6.504 10.561125,5.605875 10.31175,4.98075 C9.651375,4.715625 8.749125,4.549875 7.95675,4.542375 C8.20125,5.112375 8.4855,6.06525 8.624625,6.678375 C9.1965,6.747 10.092,6.909 10.700625,7.176375 L10.700625,7.176375 Z M10.155375,2.47575 C9.304125,1.43325 7.377375,0.546375 5.232375,0.679875 C5.711625,0.996 6.110625,1.473 6.460125,1.866 C6.995625,1.816875 8.120625,1.905375 8.543625,2.022375 C8.471625,1.93725 8.383125,1.8525 8.36025,1.802625 C8.30025,1.67325 8.445,1.645875 8.560875,1.71975 C8.7075,1.8135 8.876625,1.925625 9.010875,2.0625 C9.2595,2.118 9.8715,2.328 10.155375,2.47575 L10.155375,2.47575 Z M11.1825,7.494 C11.158125,7.577625 11.011125,7.661625 10.942875,7.640625 C10.952625,7.789125 10.918125,8.527125 10.879125,8.81175 C10.9815,8.601 11.177625,8.079 11.236125,7.858125 L11.319375,7.53375 C11.4015,7.257375 11.66925,6.304875 11.427,5.05125 C11.158125,3.6585 10.654125,3.16125 10.477875,2.94 C10.0305,2.696625 9.352875,2.47575 9.352875,2.47575 C9.96675,3.30675 10.17975,3.697875 10.5465,4.6875 C10.7595,4.798125 11.14575,5.01225 11.194125,5.07075 C11.23275,5.11725 11.233125,5.2005 11.112,5.198625 C11.011125,5.197875 10.815375,5.101125 10.663875,5.061 C10.825125,5.60025 10.95,6.607125 10.940625,7.28175 C10.940625,7.28175 11.206875,7.41075 11.1825,7.494 L11.1825,7.494 Z M10.399875,9.54375 C10.488,9.455625 10.62,9.268875 10.671375,9.160125 C10.72275,8.718 10.724625,7.811625 10.7055,7.54725 C10.17225,7.330875 9.348375,7.159875 8.7465,7.115625 C8.94225,7.83375 9.040125,8.890125 9.055125,9.234375 C9.3435,9.263625 10.072125,9.411375 10.399875,9.54375 L10.399875,9.54375 Z M9.030375,10.758 C9.49725,10.467375 9.93525,10.132875 10.25325,9.7305 C9.9795,9.661875 9.367875,9.578625 9.0645,9.598125 C9.0645,9.598125 9.055125,10.32525 9.030375,10.758 L9.030375,10.758 Z M7.756875,11.35875 C7.988625,11.284125 8.579625,11.016 8.702625,10.935 C8.731875,10.458375 8.727,9.91725 8.7075,9.59325 C8.0865,9.59325 7.210875,9.77475 6.709875,9.985125 C7.0005,10.4535 7.40175,10.9695 7.756875,11.35875 L7.756875,11.35875 Z M4.9635,10.951125 C5.137125,11.126625 5.825625,11.58225 5.825625,11.58225 C6.283125,11.60175 6.861375,11.548125 7.27425,11.476125 C7.046625,11.21625 6.478125,10.4115 6.305625,10.14075 C5.86575,10.32525 5.308125,10.665 4.9635,10.951125 L4.9635,10.951125 Z M3.082875,9.035625 C3.5205,9.597 4.205625,10.3095 4.682625,10.70325 C5.134125,10.34025 5.646,10.00125 6.07125,9.794625 C5.704125,9.225375 5.1615,8.398125 4.93425,7.89 C4.11975,8.251125 3.657375,8.55375 3.082875,9.035625 L3.082875,9.035625 Z M1.918875,6.784125 C2.1975,7.579875 2.467125,8.187 2.81925,8.688 C3.231,8.329875 4.075875,7.764375 4.72125,7.455 C4.508625,6.997875 4.201875,6.14325 3.98775,5.503125 C3.156375,5.9115 2.535,6.309375 1.918875,6.784125 L1.918875,6.784125 Z M1.251,4.395 C1.31775,4.852875 1.5375,5.84025 1.735125,6.34125 C2.205,5.987625 3.2685,5.331375 3.870375,5.065875 C3.66,4.299 3.51825,3.814875 3.4005,3.040875 C2.549625,3.41925 1.65,4.00725 1.251,4.395 L1.251,4.395 Z M1.147875,2.76375 C1.11825,2.99475 1.149375,3.421125 1.207125,3.930375 C1.676625,3.510375 2.584125,2.962125 3.342,2.628 C3.25425,2.050125 3.16125,1.128375 3.171,0.88275 C2.469375,1.267875 1.6995,2.0415 1.1355,2.834625 L1.147875,2.76375 Z M3.430125,0.42975 C4.4385,0.012375 5.419875,-0.21675 6.5535,-0.061875 C6.679125,-0.044625 6.668625,0.061875 6.53475,0.063 L6.375,0.0675 C5.46225,0.08175 4.11975,0.371625 3.42525,0.765 C3.410625,1.228125 3.498375,1.96425 3.591375,2.544375 C4.2225,2.278875 5.19825,2.00625 5.93925,1.924875 C5.5185,1.4775 4.94625,1.054875 4.878,1.00575 C4.809375,0.956625 4.77525,0.873 4.77525,0.765 C4.785,0.56325 4.958625,0.538125 5.05125,0.562125 C5.359875,0.50175 5.66625,0.435 6.188625,0.450375 C8.396625,0.354 10.41375,1.60275 11.18325,3.026625 C13.133625,6.111 11.184,10.366125 8.630625,11.499375 C7.538625,11.98425 6.601875,12.193125 4.875375,11.952375 C3.1455,11.7105 1.731,10.86525 0.633,9.087375 C-0.72,6.897375 0.04125,4.3455 0.23175,3.810375 C1.045875,1.889625 2.38125,0.871875 3.430125,0.42975 L3.430125,0.42975 Z M0.82575,4.2255 C0.803625,3.893625 0.777,3.43875 0.777,3.43875 C0.53325,3.969375 0.387375,4.288875 0.3195,4.908 C0.4905,4.60575 0.82575,4.2255 0.82575,4.2255 L0.82575,4.2255 Z M4.388625,10.949625 C4.021875,10.675875 3.11325,9.8145 2.73675,9.295125 C2.59875,9.3765 2.44425,9.598125 2.244,9.636375 C2.16525,9.651 1.98825,9.67275 1.936125,9.651 C1.883625,9.62925 1.94775,9.518625 2.004375,9.444375 C2.10225,9.316875 2.245125,9.15075 2.454375,8.98875 C2.007,8.3325 1.794,7.852875 1.489875,7.062 C1.313625,7.171875 1.186125,7.26975 1.032375,7.392 C0.980625,7.4325 0.8385,7.458375 0.7695,7.3965 C0.64425,7.284 0.642375,7.086375 0.818625,6.96075 C0.890625,6.909375 1.24875,6.66225 1.332,6.5925 C1.111875,5.958 0.928125,5.124 0.879,4.691625 C0.732375,4.819125 0.526125,4.96425 0.468375,5.003625 C0.38475,5.02725 0.328875,5.000625 0.30525,4.9965 C0.22125,5.893875 0.318,6.882 0.584625,7.77375 C1.04325,9.30825 2.3295,10.771125 4.065375,11.31525 C4.105875,11.254875 4.305375,11.023875 4.388625,10.949625 L4.388625,10.949625 Z M5.2935,11.56425 C5.122125,11.466 4.90725,11.31375 4.706625,11.180625 C4.62375,11.2545 4.55625,11.3625 4.489875,11.449125 C4.71975,11.527875 5.0295,11.534625 5.2935,11.56425 L5.2935,11.56425 Z" id="Fill-5" fill="#38729D" sketch:type="MSShapeGroup"></path>
        </g>
    </g>
</svg>