<svg width="26" height="24" viewBox="0 0 26 24" fill="none" xmlns="http://www.w3.org/2000/svg">
<path d="M25.2244 18.682L15.9506 2.1941C14.305 -0.731366 11.6108 -0.731366 9.96406 2.1941L0.689531 18.682C-0.955444 21.606 0.44507 24 3.80312 24H22.1122C25.4708 24 26.87 21.606 25.2246 18.682H25.2244ZM12.9574 6.73035C13.795 6.73035 14.4746 7.41017 14.4746 8.24748C14.4751 8.29125 14.4657 8.33155 14.4622 8.37364H14.4697L13.8648 15.7209H13.8593C13.8204 16.1885 13.4341 16.5559 12.9574 16.5559C12.4801 16.5559 12.0936 16.1885 12.0547 15.7209H12.0496L11.4455 8.37364H11.4524C11.4489 8.33155 11.4398 8.29125 11.4398 8.24748C11.44 7.41046 12.1186 6.73035 12.9574 6.73035ZM12.958 20.7532C12.1195 20.7532 11.4406 20.0737 11.4406 19.2367C11.4406 18.3984 12.1193 17.7186 12.958 17.7186C13.7956 17.7186 14.4751 18.3984 14.4751 19.2367C14.4749 20.0737 13.7957 20.7532 12.958 20.7532Z" fill="#DC8F3D"/>
</svg>
